#!OML:ASF H:\Terrain\Patient Classification 1\Terrain2\Thursday\justin.ASF
:FULLY-SPECIFIED
:DEGREES
1079
root -12.8556 17.459 14.1125 181.395 1.21055 -177.122
lowerback 8.68378 0.681886 1.05122
upperback 3.18587 1.33025 1.97007
thorax -1.59446 0.78443 1.30644
lowerneck -12.3984 0.166609 -10.2437
upperneck 37.6667 -3.43701 4.74802
head 15.5424 -3.76461 2.88398
rclavicle -8.89561e-015 -4.17448e-015
rhumerus -31.3852 -8.51522 -79.6394
rradius 32.9864
rwrist -8.74665
rhand -19.1027 13.6623
rfingers 7.12502
rthumb 7.20604 -16.195
lclavicle -8.89561e-015 -4.17448e-015
lhumerus -37.1099 4.73634 85.3008
lradius 33.6285
lwrist 3.60319
lhand -17.6775 19.809
lfingers 7.12502
lthumb 8.58154 49.6146
rfemur -6.65403 -5.29308 20.2225
rtibia 63.9226
rfoot 11.8232 -4.91582
rtoes 13.1903
lfemur -20.8427 4.5049 -19.6304
ltibia 30.2042
lfoot -8.24034 -11.5578
ltoes 9.86299
1080
root -12.8696 17.4734 14.0021 181.31 0.858818 -177.19
lowerback 8.24069 0.611429 1.12509
upperback 3.49208 1.24332 1.89183
thorax -1.02949 0.751214 1.20325
lowerneck -12.5186 0.0705414 -10.2445
upperneck 37.5761 -3.54211 4.83157
head 15.5399 -3.77374 2.90571
rclavicle 8.05078e-015 2.36554e-014
rhumerus -30.8826 -9.00342 -79.6876
rradius 32.9852
rwrist -8.79677
rhand -18.7793 14.6811
rfingers 7.12502
rthumb 7.51814 -15.1653
lclavicle 8.05078e-015 2.36554e-014
lhumerus -36.43 3.87878 85.603
lradius 33.7678
lwrist 5.03749
lhand -17.7765 18.5001
lfingers 7.12502
lthumb 8.48604 48.3096
rfemur -7.87825 -5.82485 20.152
rtibia 65.594
rfoot 10.659 -5.80549
rtoes 13.2754
lfemur -20.2314 4.55686 -19.7642
ltibia 29.9847
lfoot -8.39305 -12.0676
ltoes 10.671
1081
root -12.8859 17.4913 13.8898 181.278 0.635606 -177.138
lowerback 7.88269 0.524314 1.20901
upperback 3.58347 1.12798 1.93083
thorax -0.735441 0.696655 1.213
lowerneck -12.2959 0.130173 -10.2698
upperneck 37.4993 -3.44468 4.75485
head 15.4365 -3.74977 2.893
rclavicle -2.73329e-015 -3.97569e-015
rhumerus -30.6772 -9.17777 -79.6441
rradius 32.9831
rwrist -8.98206
rhand -18.9469 14.3253
rfingers 7.12502
rthumb 7.35645 -15.5268
lclavicle -2.73329e-015 -3.97569e-015
lhumerus -36.184 3.59698 85.7464
lradius 34.0111
lwrist 5.86447
lhand -18.5996 18.7281
lfingers 7.12502
lthumb 7.69164 48.5682
rfemur -9.16078 -6.18339 20.2392
rtibia 67.0838
rfoot 9.62445 -6.5164
rtoes 13.5281
lfemur -19.7333 4.86031 -19.7969
ltibia 29.7924
lfoot -8.56642 -12.6189
ltoes 11.2533
1082
root -12.9012 17.5041 13.7766 181.067 0.592034 -177.315
lowerback 8.0131 0.501785 0.953745
upperback 3.57495 1.08297 1.93699
thorax -0.819981 0.671619 1.36452
lowerneck -12.2121 0.219231 -10.4329
upperneck 37.6604 -3.38221 4.84384
head 15.4935 -3.76277 2.96869
rclavicle 7.55382e-015 1.19271e-014
rhumerus -30.7283 -9.03774 -79.6051
rradius 33.1572
rwrist -9.34709
rhand -19.3323 12.9513
rfingers 7.12502
rthumb 6.98441 -16.9135
lclavicle 7.55382e-015 1.19271e-014
lhumerus -36.1317 3.92367 85.5044
lradius 34.3247
lwrist 4.83306
lhand -18.9865 20.6923
lfingers 7.12502
lthumb 7.31818 50.5457
rfemur -10.2301 -6.36001 20.0442
rtibia 68.402
rfoot 8.39417 -7.06938
rtoes 13.9999
lfemur -18.9792 4.9716 -20.0353
ltibia 29.633
lfoot -8.79912 -12.7258
ltoes 11.612
1083
root -12.9149 17.5132 13.67 180.826 0.483355 -177.333
lowerback 8.36996 0.519645 0.993249
upperback 3.59851 1.12467 1.87298
thorax -0.991272 0.696666 1.26775
lowerneck -12.6013 0.178729 -10.3786
upperneck 38.0358 -3.50474 4.88647
head 15.7899 -3.82227 2.95673
rclavicle -1.5207e-014 -4.53229e-014
rhumerus -30.7072 -9.13604 -79.7084
rradius 33.2747
rwrist -9.81929
rhand -19.7518 12.0512
rfingers 7.12502
rthumb 6.57945 -17.8266
lclavicle -1.5207e-014 -4.53229e-014
lhumerus -35.9001 3.8829 85.1958
lradius 34.7451
lwrist 3.76725
lhand -19.2241 20.7764
lfingers 7.12502
lthumb 7.08886 50.6377
rfemur -11.2198 -6.64002 20.0472
rtibia 69.5556
rfoot 7.01545 -7.67883
rtoes 13.4714
lfemur -18.1874 4.90461 -20.0757
ltibia 29.4949
lfoot -9.11376 -12.6736
ltoes 11.1986
